<svg xmlns="http://www.w3.org/2000/svg" version="1.1" xmlns:xlink="http://www.w3.org/1999/xlink" xmlns:svgjs="http://svgjs.dev/svgjs" width="1920" height="1080" preserveAspectRatio="none" viewBox="0 0 1920 1080"><g mask="url(&quot;#SvgjsMask1017&quot;)" fill="none"><path d="M1620 170.82C1581.56 170.82 1547.46 223.48 1547.46 270C1547.46 308.28 1582.16 340.43 1620 340.43C1661.83 340.43 1706.79 308.92 1706.79 270C1706.79 224.11 1661.23 170.82 1620 170.82" stroke="rgba(51, 194, 143, 0.22)" stroke-width="2"></path><path d="M540 502.5C442.37 502.5 332.31 513.81 332.31 540C332.31 567.17 450.39 609.23 540 609.23C571.76 609.23 575.06 572.12 575.06 540C575.06 518.75 563.75 502.5 540 502.5" stroke="rgba(51, 194, 143, 0.22)" stroke-width="2"></path><path d="M45 0C45 94.05 11.36 225 0 225C-11.14 225 -18.75 93.75 0 0C3.75 -18.75 45 -18.45 45 0" stroke="rgba(51, 194, 143, 0.22)" stroke-width="2"></path><path d="M322.83 270C308.43 157.37 394.55 115.86 487.74 0C503.13 -19.14 513.87 0 540 0C585 0 592.09 -20.22 630 0C727.09 51.78 712.02 140.54 810 144C937.02 148.48 939.36 35.8 1080 15.88C1209.36 -2.45 1249.05 -2.45 1350 67.5C1432.41 124.61 1446.72 169.62 1446.72 270C1446.72 363.44 1429.85 410.35 1350 455.14C1246.49 513.2 1205.95 444.37 1080 475.71C1035.43 486.8 1034.68 500.19 1008.95 540C926.68 667.33 859.54 676.95 864 810C868.59 946.95 1043.05 1000.03 1027.06 1080C1016.05 1135.03 918.53 1080 810 1080C675 1080 675 1080 540 1080C464.07 1080 397.47 1126.7 388.13 1080C370.47 991.7 423.31 932.88 486 810C499.25 784.03 523.86 806.96 540 782.31C612.23 671.96 662.73 652.41 662.73 540C662.73 465.63 609.82 464.21 540 408.75C439.87 329.21 334.56 361.74 322.83 270" stroke="rgba(51, 194, 143, 0.22)" stroke-width="2"></path><path d="M1620 33.06C1567.02 33.06 1504.29 8.43 1504.29 0C1504.29 -8.1 1562.14 0 1620 0C1634.47 0 1648.93 -6.56 1648.93 0C1648.93 9.97 1639.34 33.06 1620 33.06" stroke="rgba(51, 194, 143, 0.22)" stroke-width="2"></path><path d="M1827.32 270C1859.59 243.23 1860.52 244.07 1890 214.29C1994.14 109.07 1983.98 87.76 2094.55 0C2118.98 -19.39 2153.61 -26.34 2160 0C2186.34 108.66 2160 135 2160 270C2160 405 2160 405 2160 540C2160 605.63 2203.98 654.76 2160 671.25C2068.98 705.38 2006.78 604.32 1890 641.25C1787.41 673.69 1798.84 719.94 1721.25 810C1663.84 876.63 1671.06 954.64 1620 954.64C1568.51 954.64 1552.76 890.01 1516.15 810C1457.9 682.69 1400.76 645.62 1430.27 540C1452.69 459.75 1531.38 498.52 1620 438.26C1729.91 363.52 1724.59 355.22 1827.32 270" stroke="rgba(51, 194, 143, 0.22)" stroke-width="2"></path><path d="M0 1007.14C70.52 1007.14 191.25 1061.17 191.25 1080C191.25 1097.6 69.24 1106.38 0 1080C-26.38 1069.95 -25.11 1007.14 0 1007.14" stroke="rgba(51, 194, 143, 0.22)" stroke-width="2"></path><path d="M469.57 270C469.57 214.28 488.11 140.4 540 140.4C624.58 140.4 742.5 223.14 742.5 270C742.5 310.44 637.27 315 540 315C500.81 315 469.57 301.58 469.57 270" stroke="rgba(51, 194, 143, 0.22)" stroke-width="2"></path><path d="M850 270C850 213.84 963.57 148.24 1080 148.24C1207.94 148.24 1338.75 214.03 1338.75 270C1338.75 324.19 1208.37 368.57 1080 368.57C963.99 368.57 850 324 850 270" stroke="rgba(51, 194, 143, 0.22)" stroke-width="2"></path><path d="M750.39 540C750.39 432.45 775.45 321.43 810 321.43C845.52 321.43 890.53 433.64 890.53 540C890.53 616.96 845.99 688.06 810 688.06C775.92 688.06 750.39 615.77 750.39 540" stroke="rgba(51, 194, 143, 0.22)" stroke-width="2"></path><path d="M1612.7 540C1612.7 536.52 1616.02 536.09 1620 536.09C1631.95 536.09 1644.55 534.06 1644.55 540C1644.55 548.29 1629.16 564.55 1620 564.55C1613.24 564.55 1612.7 550.75 1612.7 540" stroke="rgba(51, 194, 143, 0.22)" stroke-width="2"></path><path d="M2025 540C2025 506.72 2116.23 452.9 2160 452.9C2183.73 452.9 2160 496.45 2160 540C2160 558.75 2174.25 577.5 2160 577.5C2106.75 577.5 2025 569.02 2025 540" stroke="rgba(51, 194, 143, 0.22)" stroke-width="2"></path><path d="M675 1080C675 1037.24 750.5 936 810 936C860.36 936 894.71 1032.22 894.71 1080C894.71 1104.22 852.36 1080 810 1080C742.5 1080 675 1109.24 675 1080" stroke="rgba(51, 194, 143, 0.22)" stroke-width="2"></path></g><defs><mask id="SvgjsMask1017"><rect width="1920" height="1080" fill="#ffffff"></rect></mask></defs></svg>