<svg id="visual" viewBox="0 0 900 600" width="900" height="600" xmlns="http://www.w3.org/2000/svg" xmlns:xlink="http://www.w3.org/1999/xlink" version="1.1"><rect x="0" y="0" width="900" height="600" fill="#0f0f0f"></rect><path d="M0 223L18.8 219.3C37.7 215.7 75.3 208.3 112.8 207.2C150.3 206 187.7 211 225.2 204C262.7 197 300.3 178 337.8 169.2C375.3 160.3 412.7 161.7 450.2 168.3C487.7 175 525.3 187 562.8 192C600.3 197 637.7 195 675.2 184.5C712.7 174 750.3 155 787.8 144.3C825.3 133.7 862.7 131.3 881.3 130.2L900 129L900 601L881.3 601C862.7 601 825.3 601 787.8 601C750.3 601 712.7 601 675.2 601C637.7 601 600.3 601 562.8 601C525.3 601 487.7 601 450.2 601C412.7 601 375.3 601 337.8 601C300.3 601 262.7 601 225.2 601C187.7 601 150.3 601 112.8 601C75.3 601 37.7 601 18.8 601L0 601Z" fill="#22312d"></path><path d="M0 181L18.8 191.2C37.7 201.3 75.3 221.7 112.8 230.3C150.3 239 187.7 236 225.2 238C262.7 240 300.3 247 337.8 245C375.3 243 412.7 232 450.2 220.2C487.7 208.3 525.3 195.7 562.8 196.8C600.3 198 637.7 213 675.2 227C712.7 241 750.3 254 787.8 248.2C825.3 242.3 862.7 217.7 881.3 205.3L900 193L900 601L881.3 601C862.7 601 825.3 601 787.8 601C750.3 601 712.7 601 675.2 601C637.7 601 600.3 601 562.8 601C525.3 601 487.7 601 450.2 601C412.7 601 375.3 601 337.8 601C300.3 601 262.7 601 225.2 601C187.7 601 150.3 601 112.8 601C75.3 601 37.7 601 18.8 601L0 601Z" fill="#1f2c29"></path><path d="M0 258L18.8 263.2C37.7 268.3 75.3 278.7 112.8 285.5C150.3 292.3 187.7 295.7 225.2 295.7C262.7 295.7 300.3 292.3 337.8 293.5C375.3 294.7 412.7 300.3 450.2 295.8C487.7 291.3 525.3 276.7 562.8 273.3C600.3 270 637.7 278 675.2 280C712.7 282 750.3 278 787.8 270.2C825.3 262.3 862.7 250.7 881.3 244.8L900 239L900 601L881.3 601C862.7 601 825.3 601 787.8 601C750.3 601 712.7 601 675.2 601C637.7 601 600.3 601 562.8 601C525.3 601 487.7 601 450.2 601C412.7 601 375.3 601 337.8 601C300.3 601 262.7 601 225.2 601C187.7 601 150.3 601 112.8 601C75.3 601 37.7 601 18.8 601L0 601Z" fill="#1c2724"></path><path d="M0 331L18.8 330.7C37.7 330.3 75.3 329.7 112.8 333.2C150.3 336.7 187.7 344.3 225.2 346.5C262.7 348.7 300.3 345.3 337.8 338.8C375.3 332.3 412.7 322.7 450.2 318.2C487.7 313.7 525.3 314.3 562.8 311.5C600.3 308.7 637.7 302.3 675.2 305C712.7 307.7 750.3 319.3 787.8 317.5C825.3 315.7 862.7 300.3 881.3 292.7L900 285L900 601L881.3 601C862.7 601 825.3 601 787.8 601C750.3 601 712.7 601 675.2 601C637.7 601 600.3 601 562.8 601C525.3 601 487.7 601 450.2 601C412.7 601 375.3 601 337.8 601C300.3 601 262.7 601 225.2 601C187.7 601 150.3 601 112.8 601C75.3 601 37.7 601 18.8 601L0 601Z" fill="#1a2320"></path><path d="M0 360L18.8 362.8C37.7 365.7 75.3 371.3 112.8 367C150.3 362.7 187.7 348.3 225.2 347.2C262.7 346 300.3 358 337.8 364.7C375.3 371.3 412.7 372.7 450.2 370.5C487.7 368.3 525.3 362.7 562.8 365.8C600.3 369 637.7 381 675.2 382.8C712.7 384.7 750.3 376.3 787.8 375C825.3 373.7 862.7 379.3 881.3 382.2L900 385L900 601L881.3 601C862.7 601 825.3 601 787.8 601C750.3 601 712.7 601 675.2 601C637.7 601 600.3 601 562.8 601C525.3 601 487.7 601 450.2 601C412.7 601 375.3 601 337.8 601C300.3 601 262.7 601 225.2 601C187.7 601 150.3 601 112.8 601C75.3 601 37.7 601 18.8 601L0 601Z" fill="#171e1c"></path><path d="M0 434L18.8 427.2C37.7 420.3 75.3 406.7 112.8 401C150.3 395.3 187.7 397.7 225.2 398.2C262.7 398.7 300.3 397.3 337.8 395C375.3 392.7 412.7 389.3 450.2 393.7C487.7 398 525.3 410 562.8 413.7C600.3 417.3 637.7 412.7 675.2 409.2C712.7 405.7 750.3 403.3 787.8 406C825.3 408.7 862.7 416.3 881.3 420.2L900 424L900 601L881.3 601C862.7 601 825.3 601 787.8 601C750.3 601 712.7 601 675.2 601C637.7 601 600.3 601 562.8 601C525.3 601 487.7 601 450.2 601C412.7 601 375.3 601 337.8 601C300.3 601 262.7 601 225.2 601C187.7 601 150.3 601 112.8 601C75.3 601 37.7 601 18.8 601L0 601Z" fill="#141918"></path><path d="M0 451L18.8 453C37.7 455 75.3 459 112.8 454.3C150.3 449.7 187.7 436.3 225.2 431.2C262.7 426 300.3 429 337.8 430C375.3 431 412.7 430 450.2 436.2C487.7 442.3 525.3 455.7 562.8 461.7C600.3 467.7 637.7 466.3 675.2 466.3C712.7 466.3 750.3 467.7 787.8 462.2C825.3 456.7 862.7 444.3 881.3 438.2L900 432L900 601L881.3 601C862.7 601 825.3 601 787.8 601C750.3 601 712.7 601 675.2 601C637.7 601 600.3 601 562.8 601C525.3 601 487.7 601 450.2 601C412.7 601 375.3 601 337.8 601C300.3 601 262.7 601 225.2 601C187.7 601 150.3 601 112.8 601C75.3 601 37.7 601 18.8 601L0 601Z" fill="#111513"></path><path d="M0 484L18.8 488C37.7 492 75.3 500 112.8 499.7C150.3 499.3 187.7 490.7 225.2 487.2C262.7 483.7 300.3 485.3 337.8 486.8C375.3 488.3 412.7 489.7 450.2 488.7C487.7 487.7 525.3 484.3 562.8 484C600.3 483.7 637.7 486.3 675.2 489.2C712.7 492 750.3 495 787.8 497.3C825.3 499.7 862.7 501.3 881.3 502.2L900 503L900 601L881.3 601C862.7 601 825.3 601 787.8 601C750.3 601 712.7 601 675.2 601C637.7 601 600.3 601 562.8 601C525.3 601 487.7 601 450.2 601C412.7 601 375.3 601 337.8 601C300.3 601 262.7 601 225.2 601C187.7 601 150.3 601 112.8 601C75.3 601 37.7 601 18.8 601L0 601Z" fill="#0c0f0e"></path><path d="M0 551L18.8 551.2C37.7 551.3 75.3 551.7 112.8 548C150.3 544.3 187.7 536.7 225.2 536C262.7 535.3 300.3 541.7 337.8 541C375.3 540.3 412.7 532.7 450.2 529.2C487.7 525.7 525.3 526.3 562.8 527C600.3 527.7 637.7 528.3 675.2 527.8C712.7 527.3 750.3 525.7 787.8 529.2C825.3 532.7 862.7 541.3 881.3 545.7L900 550L900 601L881.3 601C862.7 601 825.3 601 787.8 601C750.3 601 712.7 601 675.2 601C637.7 601 600.3 601 562.8 601C525.3 601 487.7 601 450.2 601C412.7 601 375.3 601 337.8 601C300.3 601 262.7 601 225.2 601C187.7 601 150.3 601 112.8 601C75.3 601 37.7 601 18.8 601L0 601Z" fill="#070707"></path></svg>