<svg id="visual" viewBox="0 0 4800 2700" width="4800" height="2700" xmlns="http://www.w3.org/2000/svg" xmlns:xlink="http://www.w3.org/1999/xlink" version="1.1"><rect x="0" y="0" width="4800" height="2700" fill="#0f1011"></rect><path d="M0 2043L88.8 2039.2C177.7 2035.3 355.3 2027.7 533.2 2016.7C711 2005.7 889 1991.3 1066.8 1993.5C1244.7 1995.7 1422.3 2014.3 1600 1995.7C1777.7 1977 1955.3 1921 2133.2 1902.2C2311 1883.3 2489 1901.7 2666.8 1937.7C2844.7 1973.7 3022.3 2027.3 3200 2059.7C3377.7 2092 3555.3 2103 3733.2 2084.3C3911 2065.7 4089 2017.3 4266.8 1992.5C4444.7 1967.7 4622.3 1966.3 4711.2 1965.7L4800 1965L4800 2701L4711.2 2701C4622.3 2701 4444.7 2701 4266.8 2701C4089 2701 3911 2701 3733.2 2701C3555.3 2701 3377.7 2701 3200 2701C3022.3 2701 2844.7 2701 2666.8 2701C2489 2701 2311 2701 2133.2 2701C1955.3 2701 1777.7 2701 1600 2701C1422.3 2701 1244.7 2701 1066.8 2701C889 2701 711 2701 533.2 2701C355.3 2701 177.7 2701 88.8 2701L0 2701Z" fill="#226d4a"></path><path d="M0 2170L88.8 2156.7C177.7 2143.3 355.3 2116.7 533.2 2098.8C711 2081 889 2072 1066.8 2089.8C1244.7 2107.7 1422.3 2152.3 1600 2168.5C1777.7 2184.7 1955.3 2172.3 2133.2 2150.2C2311 2128 2489 2096 2666.8 2103.7C2844.7 2111.3 3022.3 2158.7 3200 2155C3377.7 2151.3 3555.3 2096.7 3733.2 2102.3C3911 2108 4089 2174 4266.8 2194.5C4444.7 2215 4622.3 2190 4711.2 2177.5L4800 2165L4800 2701L4711.2 2701C4622.3 2701 4444.7 2701 4266.8 2701C4089 2701 3911 2701 3733.2 2701C3555.3 2701 3377.7 2701 3200 2701C3022.3 2701 2844.7 2701 2666.8 2701C2489 2701 2311 2701 2133.2 2701C1955.3 2701 1777.7 2701 1600 2701C1422.3 2701 1244.7 2701 1066.8 2701C889 2701 711 2701 533.2 2701C355.3 2701 177.7 2701 88.8 2701L0 2701Z" fill="#207653"></path><path d="M0 2331L88.8 2305C177.7 2279 355.3 2227 533.2 2229.5C711 2232 889 2289 1066.8 2317.5C1244.7 2346 1422.3 2346 1600 2318C1777.7 2290 1955.3 2234 2133.2 2211.8C2311 2189.7 2489 2201.3 2666.8 2198.7C2844.7 2196 3022.3 2179 3200 2187.8C3377.7 2196.7 3555.3 2231.3 3733.2 2262.5C3911 2293.7 4089 2321.3 4266.8 2313C4444.7 2304.7 4622.3 2260.3 4711.2 2238.2L4800 2216L4800 2701L4711.2 2701C4622.3 2701 4444.7 2701 4266.8 2701C4089 2701 3911 2701 3733.2 2701C3555.3 2701 3377.7 2701 3200 2701C3022.3 2701 2844.7 2701 2666.8 2701C2489 2701 2311 2701 2133.2 2701C1955.3 2701 1777.7 2701 1600 2701C1422.3 2701 1244.7 2701 1066.8 2701C889 2701 711 2701 533.2 2701C355.3 2701 177.7 2701 88.8 2701L0 2701Z" fill="#1b805d"></path><path d="M0 2456L88.8 2450.5C177.7 2445 355.3 2434 533.2 2416.7C711 2399.3 889 2375.7 1066.8 2378.2C1244.7 2380.7 1422.3 2409.3 1600 2417.2C1777.7 2425 1955.3 2412 2133.2 2391C2311 2370 2489 2341 2666.8 2344C2844.7 2347 3022.3 2382 3200 2396.7C3377.7 2411.3 3555.3 2405.7 3733.2 2399C3911 2392.3 4089 2384.7 4266.8 2375.8C4444.7 2367 4622.3 2357 4711.2 2352L4800 2347L4800 2701L4711.2 2701C4622.3 2701 4444.7 2701 4266.8 2701C4089 2701 3911 2701 3733.2 2701C3555.3 2701 3377.7 2701 3200 2701C3022.3 2701 2844.7 2701 2666.8 2701C2489 2701 2311 2701 2133.2 2701C1955.3 2701 1777.7 2701 1600 2701C1422.3 2701 1244.7 2701 1066.8 2701C889 2701 711 2701 533.2 2701C355.3 2701 177.7 2701 88.8 2701L0 2701Z" fill="#138a68"></path><path d="M0 2492L88.8 2492.3C177.7 2492.7 355.3 2493.3 533.2 2490C711 2486.7 889 2479.3 1066.8 2488.2C1244.7 2497 1422.3 2522 1600 2539.7C1777.7 2557.3 1955.3 2567.7 2133.2 2557.7C2311 2547.7 2489 2517.3 2666.8 2505.2C2844.7 2493 3022.3 2499 3200 2501C3377.7 2503 3555.3 2501 3733.2 2494.3C3911 2487.7 4089 2476.3 4266.8 2468.2C4444.7 2460 4622.3 2455 4711.2 2452.5L4800 2450L4800 2701L4711.2 2701C4622.3 2701 4444.7 2701 4266.8 2701C4089 2701 3911 2701 3733.2 2701C3555.3 2701 3377.7 2701 3200 2701C3022.3 2701 2844.7 2701 2666.8 2701C2489 2701 2311 2701 2133.2 2701C1955.3 2701 1777.7 2701 1600 2701C1422.3 2701 1244.7 2701 1066.8 2701C889 2701 711 2701 533.2 2701C355.3 2701 177.7 2701 88.8 2701L0 2701Z" fill="#009473"></path></svg>