<svg xmlns="http://www.w3.org/2000/svg" version="1.1" xmlns:xlink="http://www.w3.org/1999/xlink" xmlns:svgjs="http://svgjs.dev/svgjs" width="1920" height="1080" preserveAspectRatio="none" viewBox="0 0 1920 1080"><g mask="url(&quot;#SvgjsMask1068&quot;)" fill="none"><path d="M1833 775L1832 1540" stroke-width="6" stroke="url(&quot;#SvgjsLinearGradient1069&quot;)" stroke-linecap="round" class="Down"></path><path d="M31 367L30 27" stroke-width="6" stroke="url(&quot;#SvgjsLinearGradient1069&quot;)" stroke-linecap="round" class="Down"></path><path d="M778 873L777 1370" stroke-width="8" stroke="url(&quot;#SvgjsLinearGradient1070&quot;)" stroke-linecap="round" class="Up"></path><path d="M1149 673L1148 -103" stroke-width="10" stroke="url(&quot;#SvgjsLinearGradient1069&quot;)" stroke-linecap="round" class="Down"></path><path d="M408 639L407 1067" stroke-width="10" stroke="url(&quot;#SvgjsLinearGradient1070&quot;)" stroke-linecap="round" class="Up"></path><path d="M630 59L629 584" stroke-width="6" stroke="url(&quot;#SvgjsLinearGradient1069&quot;)" stroke-linecap="round" class="Down"></path><path d="M207 800L206 1308" stroke-width="8" stroke="url(&quot;#SvgjsLinearGradient1070&quot;)" stroke-linecap="round" class="Up"></path><path d="M255 130L254 424" stroke-width="6" stroke="url(&quot;#SvgjsLinearGradient1069&quot;)" stroke-linecap="round" class="Down"></path><path d="M1613 740L1612 1525" stroke-width="6" stroke="url(&quot;#SvgjsLinearGradient1069&quot;)" stroke-linecap="round" class="Down"></path><path d="M470 543L469 897" stroke-width="8" stroke="url(&quot;#SvgjsLinearGradient1069&quot;)" stroke-linecap="round" class="Down"></path><path d="M1486 556L1485 976" stroke-width="10" stroke="url(&quot;#SvgjsLinearGradient1069&quot;)" stroke-linecap="round" class="Down"></path><path d="M1503 993L1502 338" stroke-width="10" stroke="url(&quot;#SvgjsLinearGradient1070&quot;)" stroke-linecap="round" class="Up"></path><path d="M1421 511L1420 137" stroke-width="10" stroke="url(&quot;#SvgjsLinearGradient1069&quot;)" stroke-linecap="round" class="Down"></path><path d="M1269 936L1268 1400" stroke-width="10" stroke="url(&quot;#SvgjsLinearGradient1070&quot;)" stroke-linecap="round" class="Up"></path><path d="M1902 381L1901 -118" stroke-width="10" stroke="url(&quot;#SvgjsLinearGradient1070&quot;)" stroke-linecap="round" class="Up"></path><path d="M826 756L825 1503" stroke-width="8" stroke="url(&quot;#SvgjsLinearGradient1069&quot;)" stroke-linecap="round" class="Down"></path><path d="M480 806L479 1553" stroke-width="6" stroke="url(&quot;#SvgjsLinearGradient1069&quot;)" stroke-linecap="round" class="Down"></path><path d="M1732 654L1731 1004" stroke-width="6" stroke="url(&quot;#SvgjsLinearGradient1069&quot;)" stroke-linecap="round" class="Down"></path><path d="M251 967L250 1601" stroke-width="10" stroke="url(&quot;#SvgjsLinearGradient1070&quot;)" stroke-linecap="round" class="Up"></path><path d="M1255 812L1254 12" stroke-width="8" stroke="url(&quot;#SvgjsLinearGradient1070&quot;)" stroke-linecap="round" class="Up"></path><path d="M1381 894L1380 257" stroke-width="10" stroke="url(&quot;#SvgjsLinearGradient1069&quot;)" stroke-linecap="round" class="Down"></path><path d="M1675 513L1674 889" stroke-width="8" stroke="url(&quot;#SvgjsLinearGradient1070&quot;)" stroke-linecap="round" class="Up"></path><path d="M1392 947L1391 163" stroke-width="10" stroke="url(&quot;#SvgjsLinearGradient1070&quot;)" stroke-linecap="round" class="Up"></path><path d="M266 87L265 633" stroke-width="10" stroke="url(&quot;#SvgjsLinearGradient1069&quot;)" stroke-linecap="round" class="Down"></path><path d="M1174 866L1173 543" stroke-width="6" stroke="url(&quot;#SvgjsLinearGradient1070&quot;)" stroke-linecap="round" class="Up"></path><path d="M918 237L917 782" stroke-width="6" stroke="url(&quot;#SvgjsLinearGradient1070&quot;)" stroke-linecap="round" class="Up"></path><path d="M250 267L249 -510" stroke-width="8" stroke="url(&quot;#SvgjsLinearGradient1070&quot;)" stroke-linecap="round" class="Up"></path><path d="M1010 932L1009 555" stroke-width="6" stroke="url(&quot;#SvgjsLinearGradient1070&quot;)" stroke-linecap="round" class="Up"></path><path d="M409 161L408 -580" stroke-width="8" stroke="url(&quot;#SvgjsLinearGradient1069&quot;)" stroke-linecap="round" class="Down"></path><path d="M538 668L537 1091" stroke-width="8" stroke="url(&quot;#SvgjsLinearGradient1069&quot;)" stroke-linecap="round" class="Down"></path><path d="M288 747L287 1265" stroke-width="10" stroke="url(&quot;#SvgjsLinearGradient1069&quot;)" stroke-linecap="round" class="Down"></path><path d="M19 876L18 401" stroke-width="10" stroke="url(&quot;#SvgjsLinearGradient1070&quot;)" stroke-linecap="round" class="Up"></path><path d="M515 961L514 314" stroke-width="6" stroke="url(&quot;#SvgjsLinearGradient1070&quot;)" stroke-linecap="round" class="Up"></path><path d="M1101 440L1100 1134" stroke-width="6" stroke="url(&quot;#SvgjsLinearGradient1070&quot;)" stroke-linecap="round" class="Up"></path><path d="M1666 129L1665 -304" stroke-width="6" stroke="url(&quot;#SvgjsLinearGradient1070&quot;)" stroke-linecap="round" class="Up"></path><path d="M940 137L939 -309" stroke-width="10" stroke="url(&quot;#SvgjsLinearGradient1069&quot;)" stroke-linecap="round" class="Down"></path><path d="M1366 972L1365 1401" stroke-width="8" stroke="url(&quot;#SvgjsLinearGradient1070&quot;)" stroke-linecap="round" class="Up"></path><path d="M601 197L600 -454" stroke-width="8" stroke="url(&quot;#SvgjsLinearGradient1070&quot;)" stroke-linecap="round" class="Up"></path><path d="M1004 508L1003 795" stroke-width="8" stroke="url(&quot;#SvgjsLinearGradient1069&quot;)" stroke-linecap="round" class="Down"></path><path d="M1333 258L1332 -58" stroke-width="6" stroke="url(&quot;#SvgjsLinearGradient1069&quot;)" stroke-linecap="round" class="Down"></path><path d="M1527 708L1526 1142" stroke-width="8" stroke="url(&quot;#SvgjsLinearGradient1070&quot;)" stroke-linecap="round" class="Up"></path><path d="M1144 1022L1143 671" stroke-width="10" stroke="url(&quot;#SvgjsLinearGradient1070&quot;)" stroke-linecap="round" class="Up"></path><path d="M1369 257L1368 821" stroke-width="10" stroke="url(&quot;#SvgjsLinearGradient1069&quot;)" stroke-linecap="round" class="Down"></path><path d="M743 559L742 1239" stroke-width="6" stroke="url(&quot;#SvgjsLinearGradient1070&quot;)" stroke-linecap="round" class="Up"></path><path d="M984 398L983 810" stroke-width="8" stroke="url(&quot;#SvgjsLinearGradient1069&quot;)" stroke-linecap="round" class="Down"></path><path d="M1433 387L1432 107" stroke-width="10" stroke="url(&quot;#SvgjsLinearGradient1070&quot;)" stroke-linecap="round" class="Up"></path><path d="M1514 744L1513 307" stroke-width="6" stroke="url(&quot;#SvgjsLinearGradient1070&quot;)" stroke-linecap="round" class="Up"></path><path d="M1403 383L1402 -112" stroke-width="10" stroke="url(&quot;#SvgjsLinearGradient1069&quot;)" stroke-linecap="round" class="Down"></path></g><defs><mask id="SvgjsMask1068"><rect width="1920" height="1080" fill="#ffffff"></rect></mask><linearGradient x1="0%" y1="0%" x2="0%" y2="100%" id="SvgjsLinearGradient1069"><stop stop-color="rgba(45, 163, 115, 0)" offset="0"></stop><stop stop-color="rgba(45, 163, 115, 0.27)" offset="1"></stop></linearGradient><linearGradient x1="0%" y1="100%" x2="0%" y2="0%" id="SvgjsLinearGradient1070"><stop stop-color="rgba(45, 163, 115, 0)" offset="0"></stop><stop stop-color="rgba(45, 163, 115, 0.27)" offset="1"></stop></linearGradient></defs></svg>