<svg id="visual" viewBox="0 0 4800 2700" width="4800" height="2700" xmlns="http://www.w3.org/2000/svg" xmlns:xlink="http://www.w3.org/1999/xlink" version="1.1"><rect x="0" y="0" width="4800" height="2700" fill="#131313"></rect><path d="M0 1454L80 1470.7C160 1487.3 320 1520.7 480 1538.8C640 1557 800 1560 960 1592C1120 1624 1280 1685 1440 1709.7C1600 1734.3 1760 1722.7 1920 1630.5C2080 1538.3 2240 1365.7 2400 1336.8C2560 1308 2720 1423 2880 1490.2C3040 1557.3 3200 1576.7 3360 1616.3C3520 1656 3680 1716 3840 1680.8C4000 1645.7 4160 1515.3 4320 1418.8C4480 1322.3 4640 1259.7 4720 1228.3L4800 1197L4800 2701L4720 2701C4640 2701 4480 2701 4320 2701C4160 2701 4000 2701 3840 2701C3680 2701 3520 2701 3360 2701C3200 2701 3040 2701 2880 2701C2720 2701 2560 2701 2400 2701C2240 2701 2080 2701 1920 2701C1760 2701 1600 2701 1440 2701C1280 2701 1120 2701 960 2701C800 2701 640 2701 480 2701C320 2701 160 2701 80 2701L0 2701Z" fill="#009473" stroke-linecap="round" stroke-linejoin="miter"></path></svg>